<svg xmlns="http://www.w3.org/2000/svg" viewBox="0 0 181.5 188.78"><defs><style>.b01571b0-f130-4c39-b24b-f4113b08272a,.b7b18345-3e5c-4e3e-8bbc-6d077409f6c0,.f754f0b2-1b04-4e1f-bbf6-930097e70607{fill:none;stroke:#f2f2f2;}.b01571b0-f130-4c39-b24b-f4113b08272a,.b7b18345-3e5c-4e3e-8bbc-6d077409f6c0{stroke-miterlimit:10;}.b01571b0-f130-4c39-b24b-f4113b08272a{stroke-width:3px;}.b7b18345-3e5c-4e3e-8bbc-6d077409f6c0,.f754f0b2-1b04-4e1f-bbf6-930097e70607{stroke-width:2px;}.f754f0b2-1b04-4e1f-bbf6-930097e70607{stroke-linejoin:bevel;}</style></defs><title>Asset 2</title><g id="b1d17b5e-d9a7-4b35-88d3-123a91691d48" data-name="Layer 2"><g id="bf923162-8094-4ae5-9739-8f8d14a1f9ab" data-name="Layer 1"><ellipse class="b01571b0-f130-4c39-b24b-f4113b08272a" cx="90.75" cy="80.99" rx="89.25" ry="30.21"/><path class="b01571b0-f130-4c39-b24b-f4113b08272a" d="M180,81v76.09c0,16.68-40,30.2-89.25,30.2S1.5,173.76,1.5,157.08V81c0,16.69,40,30.21,89.25,30.21S180,97.68,180,81Z"/><line class="b7b18345-3e5c-4e3e-8bbc-6d077409f6c0" x1="42.5" y1="38.78" x2="42.5" y2="80.78"/><path class="b7b18345-3e5c-4e3e-8bbc-6d077409f6c0" d="M40.83,50.28c-17.17-9.13,5.84-28.48,6.93-42,0,0,9.5,13.15,5.85,25.93s-9.13,16.07-9.13,16.07"/><line class="b7b18345-3e5c-4e3e-8bbc-6d077409f6c0" x1="91" y1="33.28" x2="91" y2="75.28"/><path class="b7b18345-3e5c-4e3e-8bbc-6d077409f6c0" d="M89.33,44.78c-17.17-9.13,5.84-28.48,6.93-42,0,0,9.5,13.15,5.85,25.93S93,44.78,93,44.78"/><line class="b7b18345-3e5c-4e3e-8bbc-6d077409f6c0" x1="139" y1="39.28" x2="139" y2="81.28"/><path class="b7b18345-3e5c-4e3e-8bbc-6d077409f6c0" d="M137.33,50.78c-17.17-9.13,5.84-28.48,6.93-42,0,0,9.5,13.15,5.85,25.93S141,50.78,141,50.78"/><path class="f754f0b2-1b04-4e1f-bbf6-930097e70607" d="M1.5,86.58S0,92.28,6,101.28s13.23-2.21,13.23-2.21S18,111.28,27,113.28,39.6,106,39.6,106,43,119.28,53,119.28s11.35-3.68,12.17-9.34c0,0,3.83,13.34,14.83,11.34s11-10,11-10,7,13,21,10S124.12,109,124.12,109s2.88,9.26,11.88,7.26,8.15-11.08,8.15-11.08S151,115.28,160,111.28s6.73-14.43,6.73-14.43,3.27,7.43,8.27,4.43,3.47-14.7,3.47-14.7"/></g></g></svg>